<?xml version="1.0" encoding="UTF-8"?>
<svg version="1.1" xmlns="http://www.w3.org/2000/svg" width="101" height="103">
<path d="M0 0 C32.01 0 64.02 0 97 0 C97 32.67 97 65.34 97 99 C64.99 99 32.98 99 0 99 C0 66.33 0 33.66 0 0 Z " fill="#DDDE12" transform="translate(2,2)"/>
<path d="M0 0 C-0.31008884 1.60463449 -0.62316287 3.20869231 -0.9375 4.8125 C-1.11152344 5.70582031 -1.28554688 6.59914063 -1.46484375 7.51953125 C-2 10 -2 10 -3 13 C-3.08291953 14.9920303 -3.10738177 16.98673713 -3.09765625 18.98046875 C-3.09515869 20.02871826 -3.09266113 21.07696777 -3.09008789 22.15698242 C-3.08098389 23.48705322 -3.07187988 24.81712402 -3.0625 26.1875 C-3.041875 30.415625 -3.02125 34.64375 -3 39 C-14.88 39 -26.76 39 -39 39 C-39 27.12 -39 15.24 -39 3 C-33.43125 3.0928125 -33.43125 3.0928125 -27.75 3.1875 C-19.81645172 3.25311942 -12.66698336 3.10772557 -5.07421875 0.65625 C-3 0 -3 0 0 0 Z " fill="#B9BFC5" transform="translate(50,52)"/>
<path d="M0 0 C11.88 0 23.76 0 36 0 C35.8125 12.375 35.8125 12.375 35.72973633 16.21240234 C35.68338996 22.58826689 36.18799633 27.97922005 38.3503418 33.99853516 C39 36 39 36 39 39 C38.195625 38.7834375 37.39125 38.566875 36.5625 38.34375 C24.30374605 35.44036091 12.59112791 35.78659105 0 36 C0 24.12 0 12.24 0 0 Z " fill="#030301" transform="translate(11,12)"/>
<path d="M0 0 C11.88 0 23.76 0 36 0 C36 11.88 36 23.76 36 36 C24.5625 35.875 24.5625 35.875 21.01391602 35.81982422 C14.68644474 35.78662601 9.10835881 36.41947832 3 38 C1.00291344 38.35036606 -0.99598989 38.69169075 -3 39 C-2.7834375 38.27941406 -2.566875 37.55882812 -2.34375 36.81640625 C0.83864743 24.54354949 0.20377552 12.6340825 0 0 Z " fill="#B9BFC4" transform="translate(54,12)"/>
<path d="M0 0 C0.63679688 0.2165625 1.27359375 0.433125 1.9296875 0.65625 C14.120137 4.14847426 26.41166063 3.19366676 39 3 C39 14.88 39 26.76 39 39 C27.12 39 15.24 39 3 39 C3.0928125 32.9671875 3.0928125 32.9671875 3.1875 26.8125 C3.25901959 17.46204046 3.03638995 8.92843236 0 0 Z " fill="#020201" transform="translate(51,52)"/>
</svg>
