<?xml version="1.0" encoding="UTF-8"?>
<svg version="1.1" xmlns="http://www.w3.org/2000/svg" width="500" height="500">
<path d="M0 0 C165 0 330 0 500 0 C500 165 500 330 500 500 C335 500 170 500 0 500 C0 335 0 170 0 0 Z " fill="#DFE011" transform="translate(0,0)"/>
<path d="M0 0 C12.54 0 25.08 0 38 0 C37.67 1.65 37.34 3.3 37 5 C36.42284713 16.1767874 37.19437558 26.14092518 40 37 C40.34458673 38.66437642 40.68211239 40.33031849 41 42 C40.30261719 41.71125 39.60523438 41.4225 38.88671875 41.125 C26.09842767 36.62801852 13.43480364 37.73396428 0 38 C0 25.46 0 12.92 0 0 Z " fill="#040401" transform="translate(209,154)"/>
<path d="M0 0 C-0.433125 1.29744141 -0.433125 1.29744141 -0.875 2.62109375 C-4.68386092 15.5421254 -4.29267593 27.53690718 -4 41 C-16.21 41 -28.42 41 -41 41 C-41 28.79 -41 16.58 -41 4 C-37.65875 4.061875 -34.3175 4.12375 -30.875 4.1875 C-20.26544279 4.27701888 -10.08891249 0 0 0 Z " fill="#B9BFC6" transform="translate(250,196)"/>
<path d="M0 0 C1.423125 0.433125 1.423125 0.433125 2.875 0.875 C15.73645443 4.48218707 27.65237717 4.30508852 41 4 C41 16.21 41 28.42 41 41 C28.79 41 16.58 41 4 41 C4.1875 28.75 4.1875 28.75 4.27026367 24.96777344 C4.33492719 16.11512913 2.79043225 8.37129674 0 0 Z " fill="#000001" transform="translate(250,196)"/>
<path d="M0 0 C12.21 0 24.42 0 37 0 C37 12.21 37 24.42 37 37 C26.125 36.875 26.125 36.875 22.76220703 36.81982422 C17.03024201 36.78832432 11.75496142 37.2203266 6.1640625 38.50585938 C3.12877857 39.19893413 0.08570922 39.59751619 -3 40 C-2.57093667 37.2825989 -2.13688885 34.58110129 -1.50585938 31.90234375 C0.07702968 25.00670345 0.23548556 18.42554334 0.125 11.375 C0.08375 7.62125 0.0425 3.8675 0 0 Z " fill="#B9BFC5" transform="translate(254,155)"/>
<path d="M0 0 C0.33 13.86 0.66 27.72 1 42 C2.32 42.66 3.64 43.32 5 44 C5 44.66 5 45.32 5 46 C1.37 46 -2.26 46 -6 46 C-6.33 45.34 -6.66 44.68 -7 44 C-7.54914063 44.32097656 -8.09828125 44.64195312 -8.6640625 44.97265625 C-12.94937239 46.85733267 -17.42304411 46.65574332 -22 46 C-25.93333155 44.05272935 -28.39260189 41.05093156 -30 37 C-30.66701024 31.43124009 -30.73172128 26.54474492 -28.3125 21.4375 C-24.34562865 17.25620317 -21.69983884 15.82807802 -15.9375 15.625 C-11.44569895 15.58347333 -10.93167302 16.05124523 -7 19 C-7.495 12.565 -7.495 12.565 -8 6 C-9.98 5.34 -11.96 4.68 -14 4 C-14 3.01 -14 2.02 -14 1 C-12.41693353 0.83081732 -10.83353281 0.66476064 -9.25 0.5 C-8.36828125 0.4071875 -7.4865625 0.314375 -6.578125 0.21875 C-4 0 -4 0 0 0 Z " fill="#070700" transform="translate(329,258)"/>
<path d="M0 0 C0.86625 0.763125 1.7325 1.52625 2.625 2.3125 C3.40875 2.9725 4.1925 3.6325 5 4.3125 C7.62749186 9.1632542 7.57786737 13.9366214 6.625 19.3125 C4.32820246 23.6097341 1.17280675 26.53934791 -3.375 28.3125 C-8.96890643 28.98252222 -13.83852174 29.06726125 -18.9375 26.5625 C-22.62267408 23.16080085 -25.01656616 20.3973814 -25.61328125 15.26171875 C-25.79472808 9.73236524 -25.10776814 6.66739616 -21.375 2.3125 C-15.6402615 -2.88460676 -6.77895576 -3.38947788 0 0 Z " fill="#080800" transform="translate(288.375,275.6875)"/>
<path d="M0 0 C6.27 0 12.54 0 19 0 C19 0.66 19 1.32 19 2 C17.35 2.66 15.7 3.32 14 4 C13.92594113 8.66305038 13.87144237 13.32575984 13.83520508 17.98925781 C13.82010186 19.57623251 13.79961777 21.16316537 13.77368164 22.75 C13.73736405 25.02875073 13.72028977 27.30695058 13.70703125 29.5859375 C13.68380547 30.65320572 13.68380547 30.65320572 13.66011047 31.74203491 C13.62453492 33.95754404 13.62453492 33.95754404 14 37 C17.45083995 39.30055997 18.87175728 39.27010256 22.9375 39.25 C24.49791016 39.25773437 24.49791016 39.25773437 26.08984375 39.265625 C28.99770259 39.0002097 30.62137955 38.66449738 33 37 C34.10493335 35.30049572 34.10493335 35.30049572 34.75 33.375 C35.1625 32.26125 35.575 31.1475 36 30 C36.66 30 37.32 30 38 30 C38 34.29 38 38.58 38 43 C25.13 43 12.26 43 -1 43 C-1 42.34 -1 41.68 -1 41 C1.475 40.505 1.475 40.505 4 40 C4 28.12 4 16.24 4 4 C2.68 3.34 1.36 2.68 0 2 C0 1.34 0 0.68 0 0 Z " fill="#020200" transform="translate(110,261)"/>
<path d="M0 0 C3.17852316 1.64448689 5.37801764 3.75603527 7 7 C7 8.98 7 10.96 7 13 C0.4 13 -6.2 13 -13 13 C-11.86361825 21.15263887 -11.86361825 21.15263887 -7 26 C-2.1776588 26.73383453 0.8349018 25.38005611 5 23 C5 24.32 5 25.64 5 27 C-0.5755351 30.7170234 -6.44546784 31.08803479 -13 30 C-16.90992238 27.97413348 -19.2231006 25.31735115 -21.4375 21.5625 C-22.44719797 16.96276481 -22.47913915 13.33094208 -20.875 8.875 C-15.65717426 0.87433386 -9.26543345 -1.20059138 0 0 Z " fill="#0A0A00" transform="translate(203,274)"/>
<path d="M0 0 C3.51483623 2.05032114 5.70332836 4.10998507 7 8 C7 9.65 7 11.3 7 13 C0.4 13 -6.2 13 -13 13 C-12.731875 14.588125 -12.46375 16.17625 -12.1875 17.8125 C-12.03667969 18.70582031 -11.88585937 19.59914063 -11.73046875 20.51953125 C-10.92512606 23.25425106 -10.3481033 24.39510371 -8 26 C-5.84054533 26.22132148 -5.84054533 26.22132148 -3.5625 25.8125 C-2.80066406 25.71582031 -2.03882813 25.61914062 -1.25390625 25.51953125 C1.07578032 24.98253244 2.91480091 24.15422182 5 23 C5 24.32 5 25.64 5 27 C-0.5755351 30.7170234 -6.44546784 31.08803479 -13 30 C-16.88571457 27.98667639 -19.19508824 25.32985421 -21.4375 21.625 C-22.54506793 16.45634966 -22.82456451 12.04312859 -20.5 7.25 C-15.92440959 0.25862584 -7.8689941 -1.35438797 0 0 Z " fill="#0A0A00" transform="translate(172,274)"/>
<path d="M0 0 C4.11275909 1.54228466 5.55780938 2.33671407 8 6 C8 8.31 8 10.62 8 13 C1.4 13 -5.2 13 -12 13 C-11.01 16.96 -10.02 20.92 -9 25 C-1.55608683 26.29613408 -1.55608683 26.29613408 5 23 C5.99 23.33 6.98 23.66 8 24 C3.50318058 28.61515678 1.68219284 30.16049544 -4.75 30.3125 C-10.00616723 30.26214151 -13.06045061 29.73752121 -17 26 C-20.60110028 22.0387897 -20.50611783 17.78213765 -20.34765625 12.65625 C-19.67508677 7.51751687 -17.08541707 4.98204401 -13.375 1.625 C-8.80006155 -0.57774814 -4.99264174 -0.68081478 0 0 Z " fill="#080800" transform="translate(356,274)"/>
<path d="M0 0 C3.25 1.6875 3.25 1.6875 5 4 C5.3125 6.75 5.3125 6.75 5 9 C3.35 9.33 1.7 9.66 0 10 C-0.70125 8.989375 -1.4025 7.97875 -2.125 6.9375 C-3.42155138 5.24567833 -3.42155138 5.24567833 -5 4 C-8.25789019 3.97172423 -8.25789019 3.97172423 -11 5 C-13.80498744 12.18778031 -13.33428497 17.85125229 -11 25 C-9.25034642 25.05429959 -7.50020213 25.09292823 -5.75 25.125 C-4.77546875 25.14820313 -3.8009375 25.17140625 -2.796875 25.1953125 C0.0196498 24.99862781 1.60949036 24.44568916 4 23 C4 24.32 4 25.64 4 27 C-0.47357698 30.61990358 -4.58557458 30.5039549 -10.1171875 30.34765625 C-14.05789611 29.87242174 -16.16257774 28.76466785 -19 26 C-22.26619018 21.53620676 -22.62782255 17.08601323 -22.48828125 11.6953125 C-21.70033823 7.34586705 -19.41953292 4.69013713 -16 2 C-11.13190126 -1.08278321 -5.55287352 -0.61361904 0 0 Z " fill="#0B0B00" transform="translate(255,274)"/>
<path d="M0 0 C0.33 1.65 0.66 3.3 1 5 C1.680625 4.175 2.36125 3.35 3.0625 2.5 C6 0 6 0 9.6875 -0.4375 C13 0 13 0 15 2 C14.625 4.625 14.625 4.625 14 7 C9.94568308 8.15837626 7.78187881 7.83691257 4 6 C3.21311555 8.77723925 2.88050076 11.22610077 2.90234375 14.109375 C2.90556641 14.86347656 2.90878906 15.61757813 2.91210938 16.39453125 C2.92048828 17.17183594 2.92886719 17.94914062 2.9375 18.75 C2.94201172 19.54277344 2.94652344 20.33554687 2.95117188 21.15234375 C2.96291435 23.10159508 2.98084854 25.05080738 3 27 C4.32 27.33 5.64 27.66 7 28 C7 28.66 7 29.32 7 30 C1.06 30 -4.88 30 -11 30 C-11 29.34 -11 28.68 -11 28 C-9.68 27.34 -8.36 26.68 -7 26 C-6.97104024 22.87501937 -6.95321517 19.7500731 -6.9375 16.625 C-6.92493164 15.29082031 -6.92493164 15.29082031 -6.91210938 13.9296875 C-6.90888672 13.07890625 -6.90566406 12.228125 -6.90234375 11.3515625 C-6.89448853 10.17327881 -6.89448853 10.17327881 -6.88647461 8.97119141 C-6.87426047 6.92227332 -6.87426047 6.92227332 -8 5 C-8.99 4.67 -9.98 4.34 -11 4 C-11 3.01 -11 2.02 -11 1 C-7.26562152 0.12132271 -3.83225427 -0.08912219 0 0 Z " fill="#0A0A00" transform="translate(378,274)"/>
<path d="M0 0 C0.99 0 1.98 0 3 0 C3 2.31 3 4.62 3 7 C4.98 7 6.96 7 9 7 C9 8.32 9 9.64 9 11 C7.02 11 5.04 11 3 11 C3.33 18.59 3.66 26.18 4 34 C5.98 33.34 7.96 32.68 10 32 C9.125 35.875 9.125 35.875 8 37 C5.8203125 37.23828125 5.8203125 37.23828125 3.125 37.3125 C1.79855469 37.36857422 1.79855469 37.36857422 0.4453125 37.42578125 C-2 37 -2 37 -3.63452148 35.31225586 C-5.29421446 32.50178702 -5.34706821 30.82409231 -5.29296875 27.578125 C-5.28330078 26.55332031 -5.27363281 25.52851563 -5.26367188 24.47265625 C-5.23853516 23.40917969 -5.21339844 22.34570312 -5.1875 21.25 C-5.16719727 19.63158203 -5.16719727 19.63158203 -5.14648438 17.98046875 C-5.11116584 15.3198058 -5.06184199 12.66015704 -5 10 C-6.32 10 -7.64 10 -9 10 C-7.66195697 5.98587091 -5.47584633 5.26994046 -2 3 C-1.34 2.01 -0.68 1.02 0 0 Z " fill="#0C0C00" transform="translate(221,267)"/>
<path d="M0 0 C4.09305376 1.65463875 5.10626883 3.17287782 6.9375 7.1875 C7.71743568 12.09791137 7.79687552 16.49833941 5 20.75 C2.10356498 24.17305957 2.10356498 24.17305957 -0.9375 24.4375 C-4.0625 24.1875 -4.0625 24.1875 -5.875 22.875 C-9.38638219 17.8851411 -8.6999025 10.98206817 -8.0625 5.1875 C-5.61549515 1.30108053 -4.57648044 0.28019268 0 0 Z " fill="#D8D910" transform="translate(280.0625,276.8125)"/>
<path d="M0 0 C4.15632221 0.6562614 5.08968078 1.23514282 7.5625 4.5625 C8.09375 8.09375 8.09375 8.09375 8.0625 12.0625 C8.0728125 13.3721875 8.083125 14.681875 8.09375 16.03125 C7.5625 19.5625 7.5625 19.5625 5.72265625 22.00390625 C2.81254853 24.10360423 1.07318731 24.08536832 -2.4375 23.5625 C-4.99699546 21.70907225 -5.41668798 20.62493607 -6.4375 17.5625 C-6.5822963 15.60774991 -6.65817502 13.6473862 -6.6875 11.6875 C-6.72617187 10.14449219 -6.72617187 10.14449219 -6.765625 8.5703125 C-6.22143085 3.58186615 -5.10681011 0.83565984 0 0 Z " fill="#DBDC10" transform="translate(313.4375,277.4375)"/>
<path d="M0 0 C1.175625 0.0825 2.35125 0.165 3.5625 0.25 C5.5625 3.25 5.5625 3.25 5.25 6.875 C4.5625 10.25 4.5625 10.25 3.5625 11.25 C0.50489943 11.51587831 -1.64590805 11.68409881 -4.375 10.1875 C-6.06931173 7.09787273 -5.17701685 4.57782582 -4.4375 1.25 C-3.4375 0.25 -3.4375 0.25 0 0 Z " fill="#90900A" transform="translate(171.4375,325.75)"/>
<path d="M0 0 C3 0.25 3 0.25 5 2.25 C5.25 5.75 5.25 5.75 5 9.25 C3 11.25 3 11.25 0 11.5 C-3 11.25 -3 11.25 -5 9.25 C-5.25 5.75 -5.25 5.75 -5 2.25 C-3 0.25 -3 0.25 0 0 Z " fill="#92930B" transform="translate(233,325.75)"/>
<path d="M0 0 C3.375 -0.125 3.375 -0.125 7 0 C9 2 9 2 9.25 5.5 C9 9 9 9 7 11 C3.375 11.125 3.375 11.125 0 11 C0 7.37 0 3.74 0 0 Z " fill="#86860A" transform="translate(182,326)"/>
<path d="M0 0 C2.31 0 4.62 0 7 0 C7.79953138 3.28696233 8.09658936 4.71023192 7 8 C7.33 8.99 7.66 9.98 8 11 C7.34 11 6.68 11 6 11 C5.71125 10.360625 5.4225 9.72125 5.125 9.0625 C4.17176549 6.84793921 4.17176549 6.84793921 2 6 C2 7.65 2 9.3 2 11 C1.34 11 0.68 11 0 11 C0 7.37 0 3.74 0 0 Z " fill="#646407" transform="translate(257,326)"/>
<path d="M0 0 C0.928125 0.20625 1.85625 0.4125 2.8125 0.625 C3.1425 2.605 3.4725 4.585 3.8125 6.625 C0.1825 6.625 -3.4475 6.625 -7.1875 6.625 C-6.8575 4.975 -6.5275 3.325 -6.1875 1.625 C-3.1875 -0.375 -3.1875 -0.375 0 0 Z " fill="#D5D610" transform="translate(198.1875,277.375)"/>
<path d="M0 0 C2.5 0.25 2.5 0.25 4.5 2.25 C4.5 3.9 4.5 5.55 4.5 7.25 C0.87 7.25 -2.76 7.25 -6.5 7.25 C-3.75 0.375 -3.75 0.375 0 0 Z " fill="#D6D710" transform="translate(351.5,276.75)"/>
<path d="M0 0 C2.4375 0.75 2.4375 0.75 4.4375 2.75 C4.4375 4.07 4.4375 5.39 4.4375 6.75 C0.8075 6.75 -2.8225 6.75 -6.5625 6.75 C-6.2325 5.1 -5.9025 3.45 -5.5625 1.75 C-2.5625 -0.25 -2.5625 -0.25 0 0 Z " fill="#D6D710" transform="translate(166.5625,277.25)"/>
<path d="M0 0 C1.98 0 3.96 0 6 0 C7.125 4.75 7.125 4.75 6 7 C6.39938767 9.09821215 6.39938767 9.09821215 7 11 C6.566875 10.525625 6.13375 10.05125 5.6875 9.5625 C3.97690387 7.76313043 3.97690387 7.76313043 1 7 C0.67 8.32 0.34 9.64 0 11 C0 7.37 0 3.74 0 0 Z " fill="#1E1F02" transform="translate(329,326)"/>
<path d="M0 0 C2.31 0 4.62 0 7 0 C7 0.33 7 0.66 7 1 C5.35 1 3.7 1 2 1 C2 2.32 2 3.64 2 5 C3.65 5 5.3 5 7 5 C7 5.33 7 5.66 7 6 C5.35 6 3.7 6 2 6 C2 7.32 2 8.64 2 10 C3.65 10 5.3 10 7 10 C7 10.33 7 10.66 7 11 C4.69 11 2.38 11 0 11 C0 7.37 0 3.74 0 0 Z " fill="#313103" transform="translate(341,326)"/>
<path d="M0 0 C2.31 0 4.62 0 7 0 C7 0.33 7 0.66 7 1 C5.35 1 3.7 1 2 1 C2 2.32 2 3.64 2 5 C3.32 5.33 4.64 5.66 6 6 C4.68 6 3.36 6 2 6 C2 7.65 2 9.3 2 11 C1.34 11 0.68 11 0 11 C0 7.37 0 3.74 0 0 Z " fill="#3A3A04" transform="translate(277,326)"/>
<path d="M0 0 C2.475 0.495 2.475 0.495 5 1 C4.67 1.99 4.34 2.98 4 4 C2.68 4 1.36 4 0 4 C0 2.68 0 1.36 0 0 Z " fill="#CDCD0F" transform="translate(330,327)"/>
<path d="M0 0 C0.99 0.33 1.98 0.66 3 1 C1.35 2.65 -0.3 4.3 -2 6 C-2.33 5.34 -2.66 4.68 -3 4 C-2.01 2.68 -1.02 1.36 0 0 Z " fill="#171801" transform="translate(361,297)"/>
</svg>
